STARTFONT 2.1
FONT -WRI-Mathematica5Mono-Medium-R-Normal--18-180-75-75-M-100-Adobe-FontSpecific
SIZE 18 75 75
FONTBOUNDINGBOX 44 38 -1 -15
STARTPROPERTIES 16
FOUNDRY "WRI"
FAMILY_NAME "Mathematica5Mono"
WEIGHT_NAME "Medium"
SLANT "R"
SETWIDTH_NAME "Normal"
PIXEL_SIZE 18
POINT_SIZE 180
RESOLUTION_X 75
RESOLUTION_Y 75
SPACING "M"
AVERAGE_WIDTH 100
CHARSET_REGISTRY "Adobe"
CHARSET_ENCODING "FontSpecific"
FONT_DESCENT 15
FONT_ASCENT 23
DEFAULT_CHAR 32
ENDPROPERTIES
CHARS 228
STARTCHAR Villa
ENCODING 1
SWIDTH 627 0
DWIDTH 11 0
BBX 11 15 0 -3
BITMAP
0480
0a80
1180
2e80
4040
bfa0
2080
2e80
2a80
2a80
2a80
3f80
0a00
1200
2100
ENDCHAR
STARTCHAR Kooz
ENCODING 2
SWIDTH 746 0
DWIDTH 13 0
BBX 14 16 -1 -3
BITMAP
05c0
17e0
0c70
32a0
0810
8a20
4ba0
3858
5784
4804
3154
28d4
2864
11a4
1014
0008
ENDCHAR
STARTCHAR Andy
ENCODING 3
SWIDTH 1000 0
DWIDTH 18 0
BBX 12 12 3 0
BITMAP
0400
0400
04e0
ff00
e500
1e00
0300
0300
0600
1800
1070
0f80
ENDCHAR
STARTCHAR Spooky
ENCODING 4
SWIDTH 535 0
DWIDTH 10 0
BBX 10 11 0 0
BITMAP
4100
6300
5d00
4100
f740
5580
c940
4980
5d00
8080
4100
ENDCHAR
STARTCHAR space
ENCODING 32
SWIDTH 263 0
DWIDTH 5 0
BBX 0 0 0 0
BITMAP
ENDCHAR
STARTCHAR BckspcKey
ENCODING 33
SWIDTH 1981 0
DWIDTH 36 0
BBX 33 14 1 -2
BITMAP
ffffffff80
8000000080
8000000080
8000000080
bce93bce80
a31a463180
a30c223080
bd0c13d080
a30a0a1080
a30a461080
a319461180
bce8ba0e80
8000000080
ffffffff80
ENDCHAR
STARTCHAR HomeKey
ENCODING 34
SWIDTH 1603 0
DWIDTH 29 0
BBX 27 14 1 -2
BITMAP
ffffffe0
80000020
80000020
80000020
a4e417a0
a5163420
a5163420
bd155720
a5155420
a5149420
a5149420
a4e417a0
80000020
ffffffe0
ENDCHAR
STARTCHAR PgupKey
ENCODING 35
SWIDTH 1444 0
DWIDTH 26 0
BBX 24 14 1 -2
BITMAP
ffffff
800001
800001
800001
b9c8b9
a628a5
a608a5
ba68b9
a228a1
a228a1
a128a1
a0e721
800001
ffffff
ENDCHAR
STARTCHAR PgdwnKey
ENCODING 36
SWIDTH 1999 0
DWIDTH 36 0
BBX 34 14 1 -2
BITMAP
ffffffffc0
8000000040
8000000040
8000000040
b8ef445140
a528a65940
a508aa9940
b968aa9540
a128aa9540
a128a99340
a128911340
a0e7111140
8000000040
ffffffffc0
ENDCHAR
STARTCHAR EndKey
ENCODING 37
SWIDTH 1187 0
DWIDTH 21 0
BBX 19 14 1 -2
BITMAP
ffffe0
800020
800020
800020
bd1f20
a198a0
a198a0
b958a0
a158a0
a138a0
a138a0
bd1f20
800020
ffffe0
ENDCHAR
STARTCHAR FilledHeart
ENCODING 38
SWIDTH 605 0
DWIDTH 11 0
BBX 9 10 1 0
BITMAP
7700
ff80
ff80
ff80
ff80
7f00
3e00
1c00
0800
0800
ENDCHAR
STARTCHAR Euro
ENCODING 39
SWIDTH 600 0
DWIDTH 11 0
BBX 10 10 0 0
BITMAP
0e40
31c0
2040
4040
ff00
4000
fe00
2000
30c0
0f00
ENDCHAR
STARTCHAR CapitalOE
ENCODING 40
SWIDTH 600 0
DWIDTH 11 0
BBX 11 10 0 0
BITMAP
1fc0
2440
4440
8500
8700
8500
8400
4420
2420
1fe0
ENDCHAR
STARTCHAR OE
ENCODING 41
SWIDTH 600 0
DWIDTH 11 0
BBX 10 8 0 0
BITMAP
3180
4ac0
8440
87c0
8400
8400
4a00
31c0
ENDCHAR
STARTCHAR ABar
ENCODING 42
SWIDTH 600 0
DWIDTH 11 0
BBX 9 10 1 0
BITMAP
7f00
0000
3e00
4100
0100
3f00
4100
8100
8700
7980
ENDCHAR
STARTCHAR ACup
ENCODING 43
SWIDTH 600 0
DWIDTH 11 0
BBX 9 11 1 0
BITMAP
2200
1c00
0000
3e00
4100
0100
3f00
4100
8100
8700
7980
ENDCHAR
STARTCHAR CapitalABar
ENCODING 44
SWIDTH 600 0
DWIDTH 11 0
BBX 10 13 0 0
BITMAP
3f00
0000
3c00
0c00
0a00
1200
1200
1100
2100
3f00
4080
4080
e1c0
ENDCHAR
STARTCHAR CapitalACup
ENCODING 45
SWIDTH 600 0
DWIDTH 11 0
BBX 10 13 0 0
BITMAP
1100
0e00
3c00
0c00
0a00
1200
1200
1100
2100
3f00
4080
4080
e1c0
ENDCHAR
STARTCHAR CAcute
ENCODING 46
SWIDTH 600 0
DWIDTH 11 0
BBX 8 12 1 0
BITMAP
02
04
08
00
3d
43
81
80
80
80
43
3c
ENDCHAR
STARTCHAR CHacek
ENCODING 47
SWIDTH 600 0
DWIDTH 11 0
BBX 8 12 1 0
BITMAP
42
24
18
00
3d
43
81
80
80
80
43
3c
ENDCHAR
STARTCHAR ScriptZero
ENCODING 48
SWIDTH 588 0
DWIDTH 11 0
BBX 7 10 2 0
BITMAP
1c
24
42
42
82
82
84
84
48
30
ENDCHAR
STARTCHAR ScriptOne
ENCODING 49
SWIDTH 600 0
DWIDTH 11 0
BBX 5 10 3 0
BITMAP
38
48
10
10
10
10
10
20
20
f8
ENDCHAR
STARTCHAR ScriptTwo
ENCODING 50
SWIDTH 588 0
DWIDTH 11 0
BBX 7 10 2 0
BITMAP
3c
46
42
02
04
08
30
40
80
fc
ENDCHAR
STARTCHAR ScriptThree
ENCODING 51
SWIDTH 600 0
DWIDTH 11 0
BBX 7 10 2 0
BITMAP
38
46
02
04
18
0c
04
04
88
70
ENDCHAR
STARTCHAR ScriptFour
ENCODING 52
SWIDTH 600 0
DWIDTH 11 0
BBX 7 10 2 0
BITMAP
06
0e
12
22
44
84
fc
04
04
3c
ENDCHAR
STARTCHAR ScriptFive
ENCODING 53
SWIDTH 600 0
DWIDTH 11 0
BBX 7 10 2 0
BITMAP
3e
20
20
7c
46
02
02
04
8c
70
ENDCHAR
STARTCHAR ScriptSix
ENCODING 54
SWIDTH 548 0
DWIDTH 10 0
BBX 7 10 2 0
BITMAP
0e
10
20
40
78
c4
84
84
48
70
ENDCHAR
STARTCHAR ScriptSeven
ENCODING 55
SWIDTH 559 0
DWIDTH 10 0
BBX 7 10 3 0
BITMAP
fe
02
04
04
08
10
10
20
20
40
ENDCHAR
STARTCHAR ScriptEight
ENCODING 56
SWIDTH 548 0
DWIDTH 10 0
BBX 7 10 2 0
BITMAP
1c
26
42
44
38
44
84
84
88
70
ENDCHAR
STARTCHAR ScriptNine
ENCODING 57
SWIDTH 548 0
DWIDTH 10 0
BBX 7 10 2 0
BITMAP
1c
22
42
42
46
3a
04
0c
10
e0
ENDCHAR
STARTCHAR ODoubleAcute
ENCODING 58
SWIDTH 600 0
DWIDTH 11 0
BBX 9 12 1 0
BITMAP
0900
1200
2400
0000
3e00
4100
8080
8080
8080
8080
4100
3e00
ENDCHAR
STARTCHAR CapitalODoubleAcute
ENCODING 59
SWIDTH 600 0
DWIDTH 11 0
BBX 9 14 1 0
BITMAP
0900
1200
2400
3e00
4100
8080
8080
8080
8080
8080
8080
8080
4100
3e00
ENDCHAR
STARTCHAR SHacek
ENCODING 60
SWIDTH 600 0
DWIDTH 11 0
BBX 7 12 2 0
BITMAP
42
24
18
00
7a
86
82
60
1e
82
c2
bc
ENDCHAR
STARTCHAR CapitalSHacek
ENCODING 61
SWIDTH 600 0
DWIDTH 11 0
BBX 8 14 2 0
BITMAP
42
24
18
00
3d
43
41
40
30
0e
01
81
c1
be
ENDCHAR
STARTCHAR UDoubleAcute
ENCODING 62
SWIDTH 600 0
DWIDTH 11 0
BBX 9 12 1 0
BITMAP
0900
1200
2400
0000
c300
4100
4100
4100
4100
4100
4300
3d80
ENDCHAR
STARTCHAR CapitalUDoubleAcute
ENCODING 63
SWIDTH 600 0
DWIDTH 11 0
BBX 10 14 1 0
BITMAP
0900
1200
2400
f7c0
4100
4100
4100
4100
4100
4100
4100
4100
2200
1c00
ENDCHAR
STARTCHAR HSlash
ENCODING 64
SWIDTH 600 0
DWIDTH 11 0
BBX 9 11 0 0
BITMAP
3000
0800
7e00
1700
1880
1080
2080
2080
2100
2100
f380
ENDCHAR
STARTCHAR ScriptCapA
ENCODING 65
SWIDTH 600 0
DWIDTH 11 0
BBX 11 11 0 -1
BITMAP
0fe0
1140
2240
2240
04c0
1f40
0440
0840
8840
8860
7000
ENDCHAR
STARTCHAR ScriptCapB
ENCODING 66
SWIDTH 600 0
DWIDTH 11 0
BBX 11 10 0 0
BITMAP
0fc0
3220
4420
4840
2f80
0840
1040
2040
4080
ff00
ENDCHAR
STARTCHAR ScriptCapC
ENCODING 67
SWIDTH 600 0
DWIDTH 11 0
BBX 9 11 1 -1
BITMAP
0f00
3080
4080
4000
8000
8000
8000
8100
8100
4200
3c00
ENDCHAR
STARTCHAR ScriptCapD
ENCODING 68
SWIDTH 600 0
DWIDTH 11 0
BBX 11 10 0 0
BITMAP
1f80
6440
8820
8820
8820
0820
1020
1040
6080
ff00
ENDCHAR
STARTCHAR ScriptCapE
ENCODING 69
SWIDTH 600 0
DWIDTH 11 0
BBX 9 11 1 0
BITMAP
0e00
1100
2100
2000
1000
3c00
4100
8080
8080
8100
7e00
ENDCHAR
STARTCHAR ScriptCapF
ENCODING 70
SWIDTH 590 0
DWIDTH 11 0
BBX 13 12 -1 -1
BITMAP
0008
3ff0
4200
8400
8400
5f80
0800
0800
0800
1000
2000
c000
ENDCHAR
STARTCHAR ScriptCapG
ENCODING 71
SWIDTH 600 0
DWIDTH 11 0
BBX 10 13 0 -3
BITMAP
0780
0840
1040
2000
2000
47c0
4080
4180
2700
1900
0200
8400
7800
ENDCHAR
STARTCHAR ScriptCapH
ENCODING 72
SWIDTH 700 0
DWIDTH 13 0
BBX 13 11 0 0
BITMAP
0208
3c08
4410
8410
8430
8be0
0c20
0820
1020
1020
2020
ENDCHAR
STARTCHAR ScriptCapI
ENCODING 73
SWIDTH 600 0
DWIDTH 11 0
BBX 10 11 0 0
BITMAP
0040
1fc0
0200
0400
0400
0400
0800
0800
0800
1000
fc00
ENDCHAR
STARTCHAR ScriptCapJ
ENCODING 74
SWIDTH 600 0
DWIDTH 11 0
BBX 14 12 -1 -2
BITMAP
03fc
0420
0840
0880
0480
0080
0080
0080
0100
0100
c200
3c00
ENDCHAR
STARTCHAR ScriptCapK
ENCODING 75
SWIDTH 678 0
DWIDTH 12 0
BBX 14 12 0 -1
BITMAP
0e00
321c
4420
8440
8580
4a00
0d00
0900
1080
1080
1040
6000
ENDCHAR
STARTCHAR ScriptCapL
ENCODING 76
SWIDTH 638 0
DWIDTH 11 0
BBX 11 12 0 -1
BITMAP
00c0
0120
0200
0200
0400
0400
0400
0400
0800
1000
f820
07c0
ENDCHAR
STARTCHAR ScriptCapM
ENCODING 77
SWIDTH 840 0
DWIDTH 15 0
BBX 15 12 0 -1
BITMAP
0402
0402
0404
0a0c
0a0c
1214
1124
1144
2184
2184
4102
8000
ENDCHAR
STARTCHAR ScriptCapN
ENCODING 78
SWIDTH 662 0
DWIDTH 12 0
BBX 13 11 0 -1
BITMAP
0808
0810
1820
1420
2420
2240
2140
20c0
40c0
4040
8000
ENDCHAR
STARTCHAR ScriptCapO
ENCODING 79
SWIDTH 600 0
DWIDTH 11 0
BBX 9 11 1 0
BITMAP
0f00
1080
2080
4080
8080
8080
8080
8100
8100
8200
7c00
ENDCHAR
STARTCHAR ScriptCapP
ENCODING 80
SWIDTH 600 0
DWIDTH 11 0
BBX 10 11 0 -1
BITMAP
1f00
6880
8840
9040
9180
3e00
2000
2000
2000
4000
4000
ENDCHAR
STARTCHAR ScriptCapQ
ENCODING 81
SWIDTH 600 0
DWIDTH 11 0
BBX 10 12 0 -1
BITMAP
0f00
1080
2040
4040
4040
8040
8080
8080
b900
8600
7e00
01c0
ENDCHAR
STARTCHAR ScriptCapR
ENCODING 82
SWIDTH 600 0
DWIDTH 11 0
BBX 9 11 1 0
BITMAP
1f00
6880
9080
9080
9100
5e00
2400
2200
2200
4100
4080
ENDCHAR
STARTCHAR ScriptCapS
ENCODING 83
SWIDTH 600 0
DWIDTH 11 0
BBX 10 11 0 0
BITMAP
0780
0840
1040
1000
0800
0600
0100
0080
8080
c100
3e00
ENDCHAR
STARTCHAR ScriptCapT
ENCODING 84
SWIDTH 626 0
DWIDTH 11 0
BBX 13 11 0 -1
BITMAP
3ff8
4200
8400
8400
0c00
0800
0800
0800
1000
1000
6000
ENDCHAR
STARTCHAR ScriptCapU
ENCODING 85
SWIDTH 728 0
DWIDTH 13 0
BBX 13 11 0 0
BITMAP
0600
1c08
6408
8410
8810
8810
0820
1060
10a0
1320
1c20
ENDCHAR
STARTCHAR ScriptCapV
ENCODING 86
SWIDTH 714 0
DWIDTH 13 0
BBX 13 10 0 0
BITMAP
1e08
6208
8208
8210
4220
0240
0280
0280
0300
0200
ENDCHAR
STARTCHAR ScriptCapW
ENCODING 87
SWIDTH 983 0
DWIDTH 18 0
BBX 18 11 0 0
BITMAP
000080
1c2040
642040
842080
846100
445100
049200
029400
031800
021800
021000
ENDCHAR
STARTCHAR ScriptCapX
ENCODING 88
SWIDTH 600 0
DWIDTH 11 0
BBX 10 11 0 0
BITMAP
1040
0840
0880
0500
0600
0c00
1400
2400
4200
8200
8100
ENDCHAR
STARTCHAR ScriptCapY
ENCODING 89
SWIDTH 600 0
DWIDTH 11 0
BBX 11 12 0 -1
BITMAP
0020
0820
0440
0440
04c0
0980
0a80
0c80
0900
0100
c200
3c00
ENDCHAR
STARTCHAR ScriptCapZ
ENCODING 90
SWIDTH 658 0
DWIDTH 12 0
BBX 13 11 0 -1
BITMAP
1ff8
2040
0080
0100
0200
0400
0800
1000
3000
f010
0fe0
ENDCHAR
STARTCHAR RightTriangleLeft
ENCODING 91
SWIDTH 600 0
DWIDTH 11 0
BBX 6 10 3 0
BITMAP
04
08
08
18
18
28
68
48
48
f8
ENDCHAR
STARTCHAR RightTriangleRight
ENCODING 92
SWIDTH 600 0
DWIDTH 11 0
BBX 7 10 2 0
BITMAP
80
80
c0
a0
b0
90
88
84
84
fe
ENDCHAR
STARTCHAR DoubleRightTriangle
ENCODING 93
SWIDTH 600 0
DWIDTH 11 0
BBX 10 10 0 0
BITMAP
0600
0400
0e00
0f00
1500
1580
2480
64c0
4440
ffc0
ENDCHAR
STARTCHAR Female
ENCODING 94
SWIDTH 600 0
DWIDTH 11 0
BBX 7 10 2 0
BITMAP
38
44
82
82
82
44
38
7c
10
10
ENDCHAR
STARTCHAR Male
ENCODING 95
SWIDTH 600 0
DWIDTH 11 0
BBX 9 10 2 0
BITMAP
0180
0180
3a00
4400
8200
8200
8200
8200
4400
3800
ENDCHAR
STARTCHAR NearlyEquals
ENCODING 96
SWIDTH 600 0
DWIDTH 11 0
BBX 7 10 2 -1
BITMAP
40
00
00
fe
00
00
fe
00
00
08
ENDCHAR
STARTCHAR ScriptA
ENCODING 97
SWIDTH 432 0
DWIDTH 8 0
BBX 7 8 0 0
BITMAP
1c
26
44
84
88
88
9a
ec
ENDCHAR
STARTCHAR ScriptB
ENCODING 98
SWIDTH 444 0
DWIDTH 8 0
BBX 8 12 0 0
BITMAP
10
10
10
10
26
29
31
21
42
42
44
f8
ENDCHAR
STARTCHAR ScriptC
ENCODING 99
SWIDTH 384 0
DWIDTH 7 0
BBX 6 8 0 0
BITMAP
18
24
40
80
80
80
88
70
ENDCHAR
STARTCHAR ScriptD
ENCODING 100
SWIDTH 507 0
DWIDTH 9 0
BBX 9 12 0 0
BITMAP
0080
0100
0100
0100
1d00
2200
4200
4600
8400
8c00
b400
c400
ENDCHAR
STARTCHAR ScriptE
ENCODING 101
SWIDTH 365 0
DWIDTH 7 0
BBX 6 8 0 0
BITMAP
1c
24
48
f0
80
80
88
70
ENDCHAR
STARTCHAR ScriptF
ENCODING 102
SWIDTH 476 0
DWIDTH 9 0
BBX 9 14 0 -2
BITMAP
0380
0400
0800
0800
3c00
1000
1000
2000
2000
2000
2000
4000
4000
8000
ENDCHAR
STARTCHAR ScriptG
ENCODING 103
SWIDTH 489 0
DWIDTH 9 0
BBX 9 12 0 -4
BITMAP
0f00
1180
2100
2100
4300
4600
4a00
3200
0400
0800
1000
e000
ENDCHAR
STARTCHAR ScriptH
ENCODING 104
SWIDTH 421 0
DWIDTH 8 0
BBX 7 12 0 0
BITMAP
10
10
10
20
26
2a
32
42
44
44
84
86
ENDCHAR
STARTCHAR ScriptI
ENCODING 105
SWIDTH 222 0
DWIDTH 4 0
BBX 4 11 0 0
BITMAP
10
20
00
20
20
40
40
80
80
80
80
ENDCHAR
STARTCHAR ScriptJ
ENCODING 106
SWIDTH 440 0
DWIDTH 8 0
BBX 8 15 0 -4
BITMAP
01
02
00
02
02
04
04
04
08
08
08
08
10
90
60
ENDCHAR
STARTCHAR ScriptK
ENCODING 107
SWIDTH 396 0
DWIDTH 7 0
BBX 7 12 0 0
BITMAP
30
10
10
10
22
24
38
60
50
50
88
88
ENDCHAR
STARTCHAR ScriptL
ENCODING 108
SWIDTH 221 0
DWIDTH 4 0
BBX 4 12 0 0
BITMAP
30
10
10
20
20
20
40
40
40
80
80
c0
ENDCHAR
STARTCHAR ScriptM
ENCODING 109
SWIDTH 665 0
DWIDTH 12 0
BBX 11 8 0 0
BITMAP
2660
2aa0
3320
4220
4440
8440
8440
8860
ENDCHAR
STARTCHAR ScriptN
ENCODING 110
SWIDTH 419 0
DWIDTH 8 0
BBX 7 8 0 0
BITMAP
26
2a
32
42
44
84
84
86
ENDCHAR
STARTCHAR ScriptO
ENCODING 111
SWIDTH 398 0
DWIDTH 7 0
BBX 7 8 0 0
BITMAP
1c
22
42
82
82
84
88
70
ENDCHAR
STARTCHAR ScriptP
ENCODING 112
SWIDTH 467 0
DWIDTH 8 0
BBX 8 13 0 -4
BITMAP
30
17
19
11
21
42
42
44
f8
40
80
80
80
ENDCHAR
STARTCHAR ScriptQ
ENCODING 113
SWIDTH 442 0
DWIDTH 8 0
BBX 8 11 0 -3
BITMAP
1e
23
42
84
84
9c
a4
44
08
08
08
ENDCHAR
STARTCHAR ScriptR
ENCODING 114
SWIDTH 368 0
DWIDTH 7 0
BBX 6 8 0 0
BITMAP
6c
34
20
40
40
80
80
80
ENDCHAR
STARTCHAR ScriptS
ENCODING 115
SWIDTH 428 0
DWIDTH 8 0
BBX 7 8 0 0
BITMAP
1e
22
20
10
08
04
84
78
ENDCHAR
STARTCHAR ScriptT
ENCODING 116
SWIDTH 267 0
DWIDTH 5 0
BBX 4 10 0 0
BITMAP
30
20
f0
40
40
80
80
80
90
e0
ENDCHAR
STARTCHAR ScriptU
ENCODING 117
SWIDTH 423 0
DWIDTH 8 0
BBX 8 8 0 0
BITMAP
61
22
22
42
44
8c
94
66
ENDCHAR
STARTCHAR ScriptV
ENCODING 118
SWIDTH 366 0
DWIDTH 7 0
BBX 6 8 0 0
BITMAP
84
84
48
48
50
50
60
40
ENDCHAR
STARTCHAR ScriptW
ENCODING 119
SWIDTH 582 0
DWIDTH 10 0
BBX 10 8 0 0
BITMAP
8840
8840
8880
9880
a900
aa00
ca00
8400
ENDCHAR
STARTCHAR ScriptX
ENCODING 120
SWIDTH 494 0
DWIDTH 9 0
BBX 8 8 0 0
BITMAP
11
0a
0c
08
18
24
44
c2
ENDCHAR
STARTCHAR ScriptY
ENCODING 121
SWIDTH 455 0
DWIDTH 8 0
BBX 9 12 -1 -4
BITMAP
1080
1080
1100
1100
2300
2500
3900
0200
0200
0400
8800
7000
ENDCHAR
STARTCHAR ScriptZ
ENCODING 122
SWIDTH 471 0
DWIDTH 8 0
BBX 8 8 0 0
BITMAP
39
46
04
08
10
20
40
bf
ENDCHAR
STARTCHAR ScriptAltL
ENCODING 123
SWIDTH 385 0
DWIDTH 7 0
BBX 6 11 0 0
BITMAP
0c
14
14
28
30
30
60
c0
40
40
60
ENDCHAR
STARTCHAR LogicalNand
ENCODING 124
SWIDTH 600 0
DWIDTH 11 0
BBX 9 10 1 0
BITMAP
ff80
0000
1c00
2200
2200
4100
4100
4100
8080
8080
ENDCHAR
STARTCHAR Nand2
ENCODING 125
SWIDTH 741 0
DWIDTH 13 0
BBX 11 16 1 -4
BITMAP
ffe0
0000
0000
1f00
1100
1100
2080
2080
2080
4040
4040
4040
8020
8020
8020
8020
ENDCHAR
STARTCHAR Nand3
ENCODING 126
SWIDTH 1215 0
DWIDTH 22 0
BBX 41 28 1 -9
BITMAP
7ffff0000000
000000000000
000000000000
000000000000
000000000000
000000000000
03fc00000000
020400000000
020400000100
040200000080
040200000000
040200000000
080100000000
080100000000
080100000000
080100000000
100080000000
100080000000
100080000000
200040000000
200040000000
200040000000
400020000000
400020000000
400020000000
800010000000
800010000000
800010000000
ENDCHAR
STARTCHAR DEL
ENCODING 127
SWIDTH 263 0
DWIDTH 5 0
BBX 0 0 0 0
BITMAP
ENDCHAR
STARTCHAR LogicalNor
ENCODING 128
SWIDTH 600 0
DWIDTH 11 0
BBX 9 10 1 0
BITMAP
ff80
0000
8080
8080
4100
4100
4100
2200
2200
1c00
ENDCHAR
STARTCHAR Nor2
ENCODING 129
SWIDTH 741 0
DWIDTH 13 0
BBX 12 16 1 -4
BITMAP
7ff0
0000
0000
8010
8010
8010
4020
4020
4020
2040
2040
2040
1080
1080
1080
0f00
ENDCHAR
STARTCHAR Nor3
ENCODING 130
SWIDTH 1215 0
DWIDTH 22 0
BBX 41 28 1 -9
BITMAP
7ffff0000000
000000000000
000000000000
000000000000
000000000000
000000000000
800008000000
800008000000
800008000100
400010000080
400010000000
400010000000
200020000000
200020000000
200020000000
100040000000
100040000000
100040000000
080080000000
080080000000
080080000000
040100000000
040100000000
040100000000
020200000000
020200000000
020200000000
01fc00000000
ENDCHAR
STARTCHAR LogicalXor
ENCODING 131
SWIDTH 600 0
DWIDTH 11 0
BBX 9 10 1 0
BITMAP
8080
8080
4100
4100
2200
2200
2200
1c00
0000
ff80
ENDCHAR
STARTCHAR Xor2
ENCODING 132
SWIDTH 741 0
DWIDTH 13 0
BBX 12 16 1 -4
BITMAP
8010
8010
4020
4020
4020
2040
2040
2040
1080
1080
1080
0f00
0000
0000
0000
7ff0
ENDCHAR
STARTCHAR Xor3
ENCODING 133
SWIDTH 1215 0
DWIDTH 22 0
BBX 41 28 1 -9
BITMAP
800008000000
800008000000
800008000000
400010000000
400010000000
400010000000
200020000000
200020000000
200020000100
100040000080
100040000000
100040000000
080080000000
080080000000
080080000000
040100000000
040100000000
040100000000
020200000000
020200000000
020200000000
01fc00000000
000000000000
000000000000
000000000000
000000000000
000000000000
7ffff0000000
ENDCHAR
STARTCHAR ConstantC
ENCODING 134
SWIDTH 600 0
DWIDTH 11 0
BBX 8 8 1 0
BITMAP
3c
52
a1
a0
a0
a0
51
3e
ENDCHAR
STARTCHAR LongEqual
ENCODING 135
SWIDTH 798 0
DWIDTH 14 0
BBX 11 4 2 2
BITMAP
ffe0
0000
0000
ffe0
ENDCHAR
STARTCHAR Diffd2
ENCODING 136
SWIDTH 600 0
DWIDTH 11 0
BBX 10 11 2 0
BITMAP
07c0
0080
0080
1c80
6280
c100
8100
8100
8300
c600
7b80
ENDCHAR
STARTCHAR Expe2
ENCODING 137
SWIDTH 600 0
DWIDTH 11 0
BBX 9 8 2 0
BITMAP
1e00
6100
8080
ff80
8000
8000
c300
7c00
ENDCHAR
STARTCHAR Imagi2
ENCODING 138
SWIDTH 600 0
DWIDTH 11 0
BBX 7 12 2 0
BITMAP
04
04
00
00
3c
08
08
08
08
08
10
fe
ENDCHAR
STARTCHAR Imagj2
ENCODING 139
SWIDTH 600 0
DWIDTH 11 0
BBX 9 15 1 -3
BITMAP
0180
0180
0000
0000
3f00
0300
0200
0200
0200
0200
0400
0400
0400
0800
f000
ENDCHAR
STARTCHAR CapitalCAcute
ENCODING 140
SWIDTH 600 0
DWIDTH 11 0
BBX 9 14 1 0
BITMAP
0600
0400
0800
1e80
2180
4080
8080
8000
8000
8000
8000
4000
2180
1e00
ENDCHAR
STARTCHAR CapitalCHacek
ENCODING 141
SWIDTH 600 0
DWIDTH 11 0
BBX 9 14 1 0
BITMAP
2100
1e00
0000
1e80
2180
4080
8080
8000
8000
8000
8000
4000
2180
1e00
ENDCHAR
STARTCHAR EBar
ENCODING 142
SWIDTH 600 0
DWIDTH 11 0
BBX 9 10 1 0
BITMAP
7f00
0000
3e00
4100
8080
ff80
8000
c000
6180
1e00
ENDCHAR
STARTCHAR ECup
ENCODING 143
SWIDTH 600 0
DWIDTH 11 0
BBX 9 11 1 0
BITMAP
2200
1c00
0000
3e00
4100
8080
ff80
8000
c000
6180
1e00
ENDCHAR
STARTCHAR CapitalEBar
ENCODING 144
SWIDTH 600 0
DWIDTH 11 0
BBX 9 13 1 0
BITMAP
7f00
0000
ff80
2080
2080
2080
2200
3e00
2200
2000
2080
2080
ff80
ENDCHAR
STARTCHAR CapitalECup
ENCODING 145
SWIDTH 600 0
DWIDTH 11 0
BBX 9 13 1 0
BITMAP
3300
0c00
ff80
2080
2080
2080
2200
3e00
2200
2000
2080
2080
ff80
ENDCHAR
STARTCHAR ICup
ENCODING 146
SWIDTH 600 0
DWIDTH 11 0
BBX 7 11 2 0
BITMAP
44
38
00
f0
10
10
10
10
10
10
fe
ENDCHAR
STARTCHAR CapitalICup
ENCODING 147
SWIDTH 600 0
DWIDTH 11 0
BBX 7 13 2 0
BITMAP
6c
10
fe
10
10
10
10
10
10
10
10
10
fe
ENDCHAR
STARTCHAR LSlash
ENCODING 148
SWIDTH 600 0
DWIDTH 11 0
BBX 7 12 2 0
BITMAP
f0
10
10
10
12
1c
30
50
90
10
10
fe
ENDCHAR
STARTCHAR CapitalLSlash
ENCODING 149
SWIDTH 600 0
DWIDTH 11 0
BBX 9 11 1 0
BITMAP
f800
2000
2000
2000
2800
3000
e080
2080
2080
2080
ff80
ENDCHAR
STARTCHAR Mercury
ENCODING 150
SWIDTH 600 0
DWIDTH 11 0
BBX 5 10 3 0
BITMAP
88
88
70
88
88
88
70
20
f8
20
ENDCHAR
STARTCHAR Venus
ENCODING 151
SWIDTH 600 0
DWIDTH 11 0
BBX 7 10 2 0
BITMAP
78
84
84
82
84
cc
30
10
78
10
ENDCHAR
STARTCHAR Earth
ENCODING 152
SWIDTH 600 0
DWIDTH 11 0
BBX 7 10 2 0
BITMAP
10
78
10
30
cc
84
82
84
84
78
ENDCHAR
STARTCHAR Mars
ENCODING 153
SWIDTH 600 0
DWIDTH 11 0
BBX 9 8 1 0
BITMAP
0700
0280
7c80
8400
8200
8200
8400
7800
ENDCHAR
STARTCHAR Jupiter
ENCODING 154
SWIDTH 600 0
DWIDTH 11 0
BBX 9 12 1 -2
BITMAP
0080
3880
4480
8280
8280
0280
0280
0480
0880
ff80
0080
0080
ENDCHAR
STARTCHAR Saturn
ENCODING 155
SWIDTH 600 0
DWIDTH 11 0
BBX 7 10 2 0
BITMAP
40
f0
40
5c
62
42
42
42
44
44
ENDCHAR
STARTCHAR Uranus
ENCODING 156
SWIDTH 600 0
DWIDTH 11 0
BBX 8 10 1 0
BITMAP
cb
4a
7e
4a
4a
4a
cb
18
24
18
ENDCHAR
STARTCHAR Neptune
ENCODING 157
SWIDTH 600 0
DWIDTH 11 0
BBX 11 12 0 -2
BITMAP
0c00
1e00
6cc0
dda0
4c80
4c80
4c80
3f00
0c00
3f00
0c00
0c00
ENDCHAR
STARTCHAR Pluto
ENCODING 158
SWIDTH 600 0
DWIDTH 11 0
BBX 8 12 2 -2
BITMAP
fc
82
82
82
82
82
ff
80
80
80
80
fe
ENDCHAR
STARTCHAR udieresis
ENCODING 159
SWIDTH 600 0
DWIDTH 11 0
BBX 10 10 0 0
BITMAP
0f00
3080
4080
8040
8640
8640
8040
4080
3080
1f00
ENDCHAR
STARTCHAR FirstPage
ENCODING 160
SWIDTH 600 0
DWIDTH 11 0
BBX 6 8 3 0
BITMAP
84
88
98
b8
f8
98
88
84
ENDCHAR
STARTCHAR LastPage
ENCODING 161
SWIDTH 600 0
DWIDTH 11 0
BBX 5 8 3 0
BITMAP
88
88
c8
e8
f8
c8
88
88
ENDCHAR
STARTCHAR SolidLeftTriangle
ENCODING 162
SWIDTH 600 0
DWIDTH 11 0
BBX 9 10 1 0
BITMAP
0080
0380
0780
1f80
7f80
ff80
1f80
0f80
0380
0080
ENDCHAR
STARTCHAR SolidRightTriangle
ENCODING 163
SWIDTH 600 0
DWIDTH 11 0
BBX 9 10 1 0
BITMAP
8000
e000
f000
fc00
ff00
ff80
fc00
f800
e000
8000
ENDCHAR
STARTCHAR QuarterNote
ENCODING 164
SWIDTH 600 0
DWIDTH 11 0
BBX 5 11 3 0
BITMAP
08
08
08
08
08
08
08
08
68
f8
70
ENDCHAR
STARTCHAR EighthNote
ENCODING 165
SWIDTH 600 0
DWIDTH 11 0
BBX 9 11 1 0
BITMAP
0800
0e00
0900
0880
0800
0800
0800
0800
6800
f800
7000
ENDCHAR
STARTCHAR BeamedEighthNote
ENCODING 166
SWIDTH 700 0
DWIDTH 13 0
BBX 12 11 0 0
BITMAP
07f0
0410
0410
0410
0410
0410
0410
0410
74d0
fdf0
78e0
ENDCHAR
STARTCHAR BeamedSixteenthNote
ENCODING 167
SWIDTH 700 0
DWIDTH 13 0
BBX 12 11 0 0
BITMAP
07f0
0410
07f0
0410
0410
0410
0410
0410
74d0
fdf0
78e0
ENDCHAR
STARTCHAR EntityStart
ENCODING 168
SWIDTH 700 0
DWIDTH 13 0
BBX 12 14 0 -2
BITMAP
fff0
8040
8040
8040
8c40
9040
8840
9940
a640
a240
b740
9840
8040
fff0
ENDCHAR
STARTCHAR EntityEnd
ENCODING 169
SWIDTH 700 0
DWIDTH 13 0
BBX 11 14 1 -2
BITMAP
ffe0
2020
2020
2020
2020
2020
2020
2620
2020
2020
2420
2420
2020
ffe0
ENDCHAR
STARTCHAR trademark
ENCODING 170
SWIDTH 600 0
DWIDTH 11 0
BBX 8 9 3 2
BITMAP
01
02
06
04
08
90
d0
60
60
ENDCHAR
STARTCHAR acute
ENCODING 171
SWIDTH 600 0
DWIDTH 11 0
BBX 11 11 0 0
BITMAP
0020
ffc0
80c0
8140
8240
9240
9440
8c40
8840
8040
ffc0
ENDCHAR
STARTCHAR dieresis
ENCODING 172
SWIDTH 364 0
DWIDTH 7 0
BBX 5 7 1 6
BITMAP
f8
20
20
20
20
20
20
ENDCHAR
STARTCHAR notequal
ENCODING 173
SWIDTH 364 0
DWIDTH 7 0
BBX 6 6 0 7
BITMAP
10
d4
78
78
d4
10
ENDCHAR
STARTCHAR AE
ENCODING 174
SWIDTH 364 0
DWIDTH 7 0
BBX 5 6 1 7
BITMAP
88
88
88
f8
88
88
ENDCHAR
STARTCHAR Oslash
ENCODING 175
SWIDTH 600 0
DWIDTH 11 0
BBX 4 11 5 0
BITMAP
f0
80
80
80
80
80
80
80
80
80
80
ENDCHAR
STARTCHAR infinity
ENCODING 176
SWIDTH 600 0
DWIDTH 11 0
BBX 2 13 4 -3
BITMAP
40
40
40
40
c0
80
80
c0
40
40
40
40
40
ENDCHAR
STARTCHAR plusminus
ENCODING 177
SWIDTH 600 0
DWIDTH 11 0
BBX 4 12 5 0
BITMAP
80
80
80
80
80
80
80
80
80
80
80
f0
ENDCHAR
STARTCHAR lessequal
ENCODING 178
SWIDTH 600 0
DWIDTH 11 0
BBX 1 5 5 0
BITMAP
80
80
80
80
80
ENDCHAR
STARTCHAR greaterequal
ENCODING 179
SWIDTH 600 0
DWIDTH 11 0
BBX 5 14 3 -3
BITMAP
38
20
20
20
20
e0
80
80
e0
20
20
20
20
38
ENDCHAR
STARTCHAR yen
ENCODING 180
SWIDTH 600 0
DWIDTH 11 0
BBX 5 22 3 -7
BITMAP
38
20
20
20
20
20
20
20
20
e0
80
80
e0
20
20
20
20
20
20
20
20
38
ENDCHAR
STARTCHAR mu
ENCODING 181
SWIDTH 600 0
DWIDTH 11 0
BBX 6 30 3 -11
BITMAP
3c
20
20
20
20
20
20
20
20
20
20
20
20
e0
80
80
e0
20
20
20
20
20
20
20
20
20
20
20
20
3c
ENDCHAR
STARTCHAR partialdiff
ENCODING 182
SWIDTH 600 0
DWIDTH 11 0
BBX 7 38 3 -15
BITMAP
3e
20
20
20
20
20
20
20
20
20
20
20
20
20
20
20
20
e0
80
80
e0
20
20
20
20
20
20
20
20
20
20
20
20
20
20
20
20
3e
ENDCHAR
STARTCHAR summation
ENCODING 183
SWIDTH 720 0
DWIDTH 13 0
BBX 11 8 1 0
BITMAP
1800
2000
4000
fda0
4000
2000
1000
0800
ENDCHAR
STARTCHAR product
ENCODING 184
SWIDTH 600 0
DWIDTH 11 0
BBX 8 12 2 0
BITMAP
10
38
54
92
91
10
00
10
10
00
00
10
ENDCHAR
STARTCHAR pi
ENCODING 185
SWIDTH 720 0
DWIDTH 13 0
BBX 11 8 1 0
BITMAP
0100
0080
0040
b7e0
0040
0080
0100
0200
ENDCHAR
STARTCHAR integral
ENCODING 186
SWIDTH 600 0
DWIDTH 11 0
BBX 8 12 2 0
BITMAP
10
00
00
10
10
00
10
91
92
54
38
10
ENDCHAR
STARTCHAR ordfeminine
ENCODING 187
SWIDTH 900 0
DWIDTH 16 0
BBX 14 7 1 1
BITMAP
fffc
8004
8004
a114
8004
8004
fffc
ENDCHAR
STARTCHAR ordmasculine
ENCODING 188
SWIDTH 900 0
DWIDTH 16 0
BBX 6 14 5 -2
BITMAP
fc
84
94
84
84
84
84
94
84
84
84
94
84
fc
ENDCHAR
STARTCHAR Omega
ENCODING 189
SWIDTH 900 0
DWIDTH 16 0
BBX 14 14 1 -2
BITMAP
f000
8800
8400
da00
4900
2080
1340
0920
0410
0228
0334
0180
00c0
0060
ENDCHAR
STARTCHAR ae
ENCODING 190
SWIDTH 364 0
DWIDTH 7 0
BBX 5 7 1 6
BITMAP
20
20
f8
20
20
20
20
ENDCHAR
STARTCHAR oslash
ENCODING 191
SWIDTH 263 0
DWIDTH 5 0
BBX 0 0 0 0
BITMAP
ENDCHAR
STARTCHAR questiondown
ENCODING 192
SWIDTH 263 0
DWIDTH 5 0
BBX 0 0 0 0
BITMAP
ENDCHAR
STARTCHAR exclamdown
ENCODING 193
SWIDTH 263 0
DWIDTH 5 0
BBX 0 0 0 0
BITMAP
ENDCHAR
STARTCHAR logicalnot
ENCODING 194
SWIDTH 263 0
DWIDTH 5 0
BBX 0 0 0 0
BITMAP
ENDCHAR
STARTCHAR radical
ENCODING 195
SWIDTH 263 0
DWIDTH 5 0
BBX 0 0 0 0
BITMAP
ENDCHAR
STARTCHAR florin
ENCODING 196
SWIDTH 263 0
DWIDTH 5 0
BBX 0 0 0 0
BITMAP
ENDCHAR
STARTCHAR approxequal
ENCODING 197
SWIDTH 263 0
DWIDTH 5 0
BBX 0 0 0 0
BITMAP
ENDCHAR
STARTCHAR Delta
ENCODING 198
SWIDTH 263 0
DWIDTH 5 0
BBX 0 0 0 0
BITMAP
ENDCHAR
STARTCHAR guillemotleft
ENCODING 199
SWIDTH 263 0
DWIDTH 5 0
BBX 0 0 0 0
BITMAP
ENDCHAR
STARTCHAR guillemotright
ENCODING 200
SWIDTH 263 0
DWIDTH 5 0
BBX 0 0 0 0
BITMAP
ENDCHAR
STARTCHAR ellipsis
ENCODING 201
SWIDTH 263 0
DWIDTH 5 0
BBX 0 0 0 0
BITMAP
ENDCHAR
STARTCHAR nbspace
ENCODING 202
SWIDTH 263 0
DWIDTH 5 0
BBX 0 0 0 0
BITMAP
ENDCHAR
STARTCHAR Agrave
ENCODING 203
SWIDTH 263 0
DWIDTH 5 0
BBX 0 0 0 0
BITMAP
ENDCHAR
STARTCHAR Atilde
ENCODING 204
SWIDTH 263 0
DWIDTH 5 0
BBX 0 0 0 0
BITMAP
ENDCHAR
STARTCHAR Otilde
ENCODING 205
SWIDTH 263 0
DWIDTH 5 0
BBX 0 0 0 0
BITMAP
ENDCHAR
STARTCHAR parenright
ENCODING 206
SWIDTH 263 0
DWIDTH 5 0
BBX 0 0 0 0
BITMAP
ENDCHAR
STARTCHAR oe
ENCODING 207
SWIDTH 263 0
DWIDTH 5 0
BBX 0 0 0 0
BITMAP
ENDCHAR
STARTCHAR endash
ENCODING 208
SWIDTH 263 0
DWIDTH 5 0
BBX 0 0 0 0
BITMAP
ENDCHAR
STARTCHAR emdash
ENCODING 209
SWIDTH 263 0
DWIDTH 5 0
BBX 0 0 0 0
BITMAP
ENDCHAR
STARTCHAR quotedblleft
ENCODING 210
SWIDTH 263 0
DWIDTH 5 0
BBX 0 0 0 0
BITMAP
ENDCHAR
STARTCHAR quotedblright
ENCODING 211
SWIDTH 263 0
DWIDTH 5 0
BBX 0 0 0 0
BITMAP
ENDCHAR
STARTCHAR quoteleft
ENCODING 212
SWIDTH 263 0
DWIDTH 5 0
BBX 0 0 0 0
BITMAP
ENDCHAR
STARTCHAR quoteright
ENCODING 213
SWIDTH 263 0
DWIDTH 5 0
BBX 0 0 0 0
BITMAP
ENDCHAR
STARTCHAR divide
ENCODING 214
SWIDTH 263 0
DWIDTH 5 0
BBX 0 0 0 0
BITMAP
ENDCHAR
STARTCHAR lozenge
ENCODING 215
SWIDTH 263 0
DWIDTH 5 0
BBX 0 0 0 0
BITMAP
ENDCHAR
STARTCHAR ydieresis
ENCODING 216
SWIDTH 263 0
DWIDTH 5 0
BBX 0 0 0 0
BITMAP
ENDCHAR
STARTCHAR Ydieresis
ENCODING 217
SWIDTH 263 0
DWIDTH 5 0
BBX 0 0 0 0
BITMAP
ENDCHAR
STARTCHAR fraction
ENCODING 218
SWIDTH 263 0
DWIDTH 5 0
BBX 0 0 0 0
BITMAP
ENDCHAR
STARTCHAR currency
ENCODING 219
SWIDTH 263 0
DWIDTH 5 0
BBX 0 0 0 0
BITMAP
ENDCHAR
STARTCHAR guilsinglleft
ENCODING 220
SWIDTH 263 0
DWIDTH 5 0
BBX 0 0 0 0
BITMAP
ENDCHAR
STARTCHAR guilsinglright
ENCODING 221
SWIDTH 263 0
DWIDTH 5 0
BBX 0 0 0 0
BITMAP
ENDCHAR
STARTCHAR fi
ENCODING 222
SWIDTH 263 0
DWIDTH 5 0
BBX 0 0 0 0
BITMAP
ENDCHAR
STARTCHAR fl
ENCODING 223
SWIDTH 263 0
DWIDTH 5 0
BBX 0 0 0 0
BITMAP
ENDCHAR
STARTCHAR daggerdbl
ENCODING 224
SWIDTH 263 0
DWIDTH 5 0
BBX 0 0 0 0
BITMAP
ENDCHAR
STARTCHAR periodcentered
ENCODING 225
SWIDTH 263 0
DWIDTH 5 0
BBX 0 0 0 0
BITMAP
ENDCHAR
STARTCHAR quotesinglbase
ENCODING 226
SWIDTH 263 0
DWIDTH 5 0
BBX 0 0 0 0
BITMAP
ENDCHAR
STARTCHAR quotedblbase
ENCODING 227
SWIDTH 263 0
DWIDTH 5 0
BBX 0 0 0 0
BITMAP
ENDCHAR
STARTCHAR perthousand
ENCODING 228
SWIDTH 263 0
DWIDTH 5 0
BBX 0 0 0 0
BITMAP
ENDCHAR
STARTCHAR Acircumflex
ENCODING 229
SWIDTH 263 0
DWIDTH 5 0
BBX 0 0 0 0
BITMAP
ENDCHAR
STARTCHAR Ecircumflex
ENCODING 230
SWIDTH 263 0
DWIDTH 5 0
BBX 0 0 0 0
BITMAP
ENDCHAR
STARTCHAR Aacute
ENCODING 231
SWIDTH 263 0
DWIDTH 5 0
BBX 0 0 0 0
BITMAP
ENDCHAR
STARTCHAR Edieresis
ENCODING 232
SWIDTH 263 0
DWIDTH 5 0
BBX 0 0 0 0
BITMAP
ENDCHAR
STARTCHAR Egrave
ENCODING 233
SWIDTH 263 0
DWIDTH 5 0
BBX 0 0 0 0
BITMAP
ENDCHAR
STARTCHAR Iacute
ENCODING 234
SWIDTH 263 0
DWIDTH 5 0
BBX 0 0 0 0
BITMAP
ENDCHAR
STARTCHAR Icircumflex
ENCODING 235
SWIDTH 263 0
DWIDTH 5 0
BBX 0 0 0 0
BITMAP
ENDCHAR
STARTCHAR Idieresis
ENCODING 236
SWIDTH 263 0
DWIDTH 5 0
BBX 0 0 0 0
BITMAP
ENDCHAR
STARTCHAR Igrave
ENCODING 237
SWIDTH 263 0
DWIDTH 5 0
BBX 0 0 0 0
BITMAP
ENDCHAR
STARTCHAR Oacute
ENCODING 238
SWIDTH 263 0
DWIDTH 5 0
BBX 0 0 0 0
BITMAP
ENDCHAR
STARTCHAR Ocircumflex
ENCODING 239
SWIDTH 263 0
DWIDTH 5 0
BBX 0 0 0 0
BITMAP
ENDCHAR
STARTCHAR apple
ENCODING 240
SWIDTH 263 0
DWIDTH 5 0
BBX 0 0 0 0
BITMAP
ENDCHAR
STARTCHAR Ograve
ENCODING 241
SWIDTH 263 0
DWIDTH 5 0
BBX 0 0 0 0
BITMAP
ENDCHAR
STARTCHAR Uacute
ENCODING 242
SWIDTH 263 0
DWIDTH 5 0
BBX 0 0 0 0
BITMAP
ENDCHAR
STARTCHAR Ucircumflex
ENCODING 243
SWIDTH 263 0
DWIDTH 5 0
BBX 0 0 0 0
BITMAP
ENDCHAR
STARTCHAR Ugrave
ENCODING 244
SWIDTH 263 0
DWIDTH 5 0
BBX 0 0 0 0
BITMAP
ENDCHAR
STARTCHAR dotlessi
ENCODING 245
SWIDTH 263 0
DWIDTH 5 0
BBX 0 0 0 0
BITMAP
ENDCHAR
STARTCHAR circumflex
ENCODING 246
SWIDTH 263 0
DWIDTH 5 0
BBX 0 0 0 0
BITMAP
ENDCHAR
STARTCHAR CurlyQuote
ENCODING 247
SWIDTH 600 0
DWIDTH 11 0
BBX 2 4 4 6
BITMAP
c0
c0
40
80
ENDCHAR
STARTCHAR CurlyDblQuote
ENCODING 248
SWIDTH 600 0
DWIDTH 11 0
BBX 5 4 3 6
BITMAP
d8
d8
48
90
ENDCHAR
STARTCHAR CurlyBackQuote
ENCODING 249
SWIDTH 600 0
DWIDTH 11 0
BBX 2 4 5 6
BITMAP
40
80
c0
c0
ENDCHAR
STARTCHAR CurlyDblBackQuote
ENCODING 250
SWIDTH 600 0
DWIDTH 11 0
BBX 5 4 3 6
BITMAP
48
90
d8
d8
ENDCHAR
STARTCHAR StrikeCircle
ENCODING 251
SWIDTH 600 0
DWIDTH 9 0
BBX 9 9 0 0
BITMAP
3e00
4100
8080
8080
8080
8080
8080
4100
3e00
ENDCHAR
STARTCHAR StrikeSquare
ENCODING 252
SWIDTH 600 0
DWIDTH 9 0
BBX 8 8 0 0
BITMAP
ff
81
81
81
81
81
81
ff
ENDCHAR
STARTCHAR StrikeTriangle
ENCODING 253
SWIDTH 600 0
DWIDTH 9 0
BBX 9 8 0 0
BITMAP
0800
1400
1400
2200
2200
4100
4100
ff80
ENDCHAR
STARTCHAR MathLogo1
ENCODING 254
SWIDTH 2776 0
DWIDTH 43 0
BBX 43 10 0 0
BITMAP
383c00000000
08508ffef7e0
1c50c9242220
149151042200
149241042280
2522420fc780
2523c2084480
462462084400
46242208c460
e4fe7f3dffc0
ENDCHAR
STARTCHAR MathLogo2
ENCODING 255
SWIDTH 2981 0
DWIDTH 46 0
BBX 43 9 0 0
BITMAP
38711ffc6080
186122489880
18c302090980
28c302090180
294504120280
2547841203c0
264884120440
44c884131440
e5f9de79ece0
ENDCHAR
ENDFONT
